:SAMPLES-PER-SECOND 24
:FULLY-SPECIFIED
:DEGREES
65
root  -0.00619178 41.9277 31.394 -178.85 -55.2949 172.814
RightUpLeg  -6.48657 -5.38836 -16.8138
RightLeg  19.652 10.956 4.1125
RightFoot  15.1845 -2.41399 10.664
RightToes  -1.74623e-010 0 -2.59999e-017
Spine  2.30493 -3.08823 -9.71334
Spine1  11.7991 -5.01055 4.6098
HEad  -8.48166 -31.2454 10.8073
LeftShoulder1  1.91356 -3.77367 -19.8275
LeftArm  34.1703 -13.2332 -59.287
LeftForeArm  135.145 -71.8325 -145.379
LeftHand  0.0339047 5.80295 13.9054
RightShoulder  2.70945 5.02423 25.7323
RightArm  -0.708404 -20.303 33.1334
RightForeArm  15.1791 67.4 27.0525
RightHand  -0.11301 -1.74167 -3.34467
LeftUpLeg  7.1619 11.1718 12.6006
LeftLeg  17.5328 0.917727 0.12289
LeftFoot  11.6602 2.96063 -14.8354
LeftToes  -6.27559e-011 -2.10356e-011 8.24929e-012
66
root  0.00957544 41.9891 31.3915 -178.854 -54.9923 172.944
RightUpLeg  -6.77836 -5.04308 -17.0492
RightLeg  19.9902 5.53454 2.01422
RightFoot  12.4814 -0.969253 5.0349
RightToes  -1.74623e-010 0 -2.59999e-017
Spine  2.53809 -3.38655 -8.74178
Spine1  11.561 -5.08395 3.86837
HEad  -9.75663 -30.4855 10.6848
LeftShoulder1  1.75476 -3.82188 -17.295
LeftArm  34.3342 -13.8757 -59.3571
LeftForeArm  132.529 -72.0099 -144.623
LeftHand  0.103993 6.3004 15.2079
RightShoulder  2.42815 4.71353 23.3991
RightArm  4.16528 -18.548 32.4439
RightForeArm  37.8171 76.3613 51.3749
RightHand  -0.0647331 -3.29654 -2.80375
LeftUpLeg  5.81409 10.5373 11.7125
LeftLeg  18.2172 -2.34825 -0.812699
LeftFoot  9.18951 2.96312 -16.564
LeftToes  -6.27559e-011 -2.10356e-011 8.24929e-012
67
root  0.0760446 41.3957 31.4464 -179.302 -54.4887 173.151
RightUpLeg  -7.4356 -4.64849 -17.8411
RightLeg  22.0651 2.73749 1.00466
RightFoot  12.1894 -0.959458 4.92349
RightToes  -1.74623e-010 0 -2.59999e-017
Spine  3.68303 -3.36053 -7.67159
Spine1  11.3005 -4.87471 3.09605
HEad  -11.8137 -29.8782 11.2346
LeftShoulder1  1.6053 -3.53181 -16.0687
LeftArm  33.9793 -16.7501 -59.0413
LeftForeArm  131.919 -72.11 -144.324
LeftHand  0.115011 6.31817 16.1203
RightShoulder  2.29438 4.56646 22.2094
RightArm  6.55569 -14.4064 30.6288
RightForeArm  80.886 79.2207 94.7604
RightHand  -0.0506848 -4.63547 -4.54044
LeftUpLeg  4.6005 8.81434 10.9062
LeftLeg  18.6769 -3.30255 -1.00987
LeftFoot  8.94533 2.79738 -15.8501
LeftToes  -6.27559e-011 -2.10356e-011 8.24929e-012
68
root  0.164869 40.0827 31.4245 -179.842 -53.8703 173.401
RightUpLeg  -8.42304 -4.3108 -18.7473
RightLeg  26.0505 3.98864 1.89662
RightFoot  7.33698 -1.61722 10.2217
RightToes  -1.74623e-010 0 -2.59999e-017
Spine  5.09662 -3.04356 -7.51227
Spine1  10.4933 -4.70469 3.06953
HEad  -12.899 -29.4208 10.7395
LeftShoulder1  1.60119 -3.53271 -16.0004
LeftArm  32.1918 -19.7973 -58.6397
LeftForeArm  132.113 -72.2541 -144.059
LeftHand  0.0585729 5.91238 15.9997
RightShoulder  2.18325 4.4782 21.0559
RightArm  6.27213 -9.10082 28.9311
RightForeArm  108.65 77.0136 124.134
RightHand  -0.0881154 -4.25771 -7.00309
LeftUpLeg  2.83512 7.89326 10.9858
LeftLeg  22.9286 -4.65889 -1.82359
LeftFoot  2.46647 1.86954 -15.4345
LeftToes  -6.27559e-011 -2.10356e-011 8.24929e-012
69
root  0.322068 38.2857 31.3981 179.756 -53.256 173.769
RightUpLeg  -11.0085 -6.16444 -19.3875
RightLeg  33.2596 6.311 4.20483
RightFoot  -5.59308 -0.680994 12.7534
RightToes  -1.74623e-010 0 -2.59999e-017
Spine  5.84616 -2.59474 -7.38839
Spine1  10.3405 -4.29625 2.47293
HEad  -14.1922 -29.5484 10.7413
LeftShoulder1  1.50045 -3.32258 -15.1507
LeftArm  30.6082 -24.8807 -60.0547
LeftForeArm  127.065 -73.1144 -141.313
LeftHand  0.13185 6.36372 17.2073
RightShoulder  2.09271 4.42145 20.0401
RightArm  3.13607 -2.49556 27.7704
RightForeArm  117.255 75.6118 132.124
RightHand  -0.124292 -3.69822 -7.50353
LeftUpLeg  0.0800583 8.31358 11.9664
LeftLeg  31.2643 -5.49635 -3.22898
LeftFoot  -10.3009 0.212664 -16.5616
LeftToes  -6.27559e-011 -2.10356e-011 8.24929e-012
70
root  0.549562 36.7265 31.4351 179.08 -52.4128 174.278
RightUpLeg  -14.6678 -8.30382 -19.5221
RightLeg  41.1796 7.08428 6.31213
RightFoot  -14.8943 0.238158 10.7205
RightToes  -1.74623e-010 0 -2.59999e-017
Spine  5.67659 -1.77691 -6.41324
Spine1  12.63 -3.09035 0.674167
HEad  -18.6442 -30.5698 13.7809
LeftShoulder1  1.30491 -2.59064 -14.5384
LeftArm  31.0615 -32.7261 -63.3323
LeftForeArm  119.863 -74.8373 -135.284
LeftHand  0.301617 7.39272 18.25
RightShoulder  2.16294 4.54733 20.5316
RightArm  -4.94954 1.87994 27.6289
RightForeArm  123.65 76.6065 129.781
RightHand  -0.0414737 -5.02447 -3.39052
LeftUpLeg  -2.47061 9.35833 13.2166
LeftLeg  39.1029 -5.50259 -4.3782
LeftFoot  -19.6905 -1.1673 -17.5347
LeftToes  -6.27559e-011 -2.10356e-011 8.24929e-012
